<?xml version="1.0" standalone="no"?>
<!DOCTYPE svg PUBLIC "-//W3C//DTD SVG 20010904//EN"
 "http://www.w3.org/TR/2001/REC-SVG-20010904/DTD/svg10.dtd">
<svg version="1.0" xmlns="http://www.w3.org/2000/svg"
 width="414.000000pt" height="551.000000pt" viewBox="0 0 414.000000 551.000000"
 preserveAspectRatio="xMidYMid meet">

<g transform="translate(0.000000,551.000000) scale(0.100000,-0.100000)"
fill="#000000" stroke="none">
<path d="M3193 5392 c-142 -51 -230 -164 -254 -328 -21 -136 15 -437 77 -659
53 -189 94 -290 256 -635 136 -288 161 -351 196 -479 23 -88 25 -114 26 -301
1 -223 -12 -304 -69 -441 -60 -142 -174 -275 -280 -329 l-50 -25 -1077 -3
-1078 -2 0 125 0 125 1134 0 1135 0 29 77 c26 67 50 151 76 266 l6 27 -1190 0
-1190 0 0 80 0 80 1195 0 c949 0 1195 3 1195 13 0 51 -60 330 -73 344 -3 2
-632 5 -1398 4 -1350 0 -1393 0 -1418 -19 -50 -36 -61 -75 -61 -214 l0 -128
190 0 190 0 0 -80 0 -80 -190 0 -190 0 0 -185 0 -185 190 0 190 0 0 -125 0
-125 -242 0 -243 0 -58 -90 c-108 -167 -139 -257 -98 -280 13 -6 191 -10 511
-10 l492 0 -45 -53 c-44 -51 -107 -144 -107 -158 0 -3 39 9 88 27 306 115 529
153 713 122 l70 -11 -48 -49 c-26 -27 -88 -77 -136 -110 -124 -86 -162 -132
-181 -221 -16 -71 -42 -306 -91 -797 l-25 -255 -47 -40 c-81 -68 -133 -124
-133 -145 0 -20 8 -20 400 -20 328 0 400 2 400 13 0 27 -41 49 -188 101 -173
61 -232 88 -258 117 -17 18 -17 26 -5 107 30 208 149 709 186 782 24 47 61 70
181 114 129 47 312 123 438 180 74 34 81 35 125 24 25 -6 48 -12 50 -14 1 -1
-22 -73 -53 -158 -35 -98 -56 -172 -56 -199 0 -55 14 -84 310 -621 l245 -445
323 -3 c177 -2 322 -1 322 2 0 3 -21 20 -45 38 -78 59 -209 119 -373 171
l-160 51 -47 108 c-152 344 -285 659 -285 675 0 59 148 347 178 347 9 0 55 5
102 10 380 44 718 286 891 639 85 175 119 339 119 579 0 404 -89 675 -423
1289 -197 360 -237 464 -237 610 0 83 13 128 49 166 51 56 55 57 378 57 l298
0 -70 62 c-72 64 -303 292 -390 387 -71 77 -154 115 -260 119 -58 2 -94 -3
-132 -16z m231 -253 c55 -43 22 -133 -49 -133 -46 0 -75 31 -75 79 0 38 37 75
75 75 12 0 34 -9 49 -21z"/>
</g>
</svg>
